# Blender 4.2.5 LTS
# www.blender.org
mtllib Small Flood Lamp.mtl
g Cube_Cube.001
v -1.000000 0.000000 1.000000
v -0.200000 0.500000 0.500000
v -1.000000 0.000000 -1.000000
v -0.200000 0.500000 -0.500000
v 1.000000 0.000000 1.000000
v 0.200000 0.500000 0.500000
v 1.000000 0.000000 -1.000000
v 0.200000 0.500000 -0.500000
v -1.000000 0.500000 1.000000
v -1.000000 0.500000 -1.000000
v 1.000000 0.500000 -1.000000
v 1.000000 0.500000 1.000000
v -0.200000 1.000000 0.500000
v -0.200000 1.000000 -0.500000
v 0.200000 1.000000 -0.500000
v 0.200000 1.000000 0.500000
vn -1.0000 -0.0000 -0.0000
vn -0.0000 -0.0000 -1.0000
vn 1.0000 -0.0000 -0.0000
vn -0.0000 -0.0000 1.0000
vn -0.0000 -1.0000 -0.0000
vn -0.0000 1.0000 -0.0000
vt 0.625000 0.500000
vt 0.500000 0.500000
vt 0.500000 -0.000000
vt 0.625000 0.000000
vt 0.625000 1.000000
vt 0.500000 1.000000
vt 0.500000 0.500000
vt 0.625000 0.500000
vt 0.750000 0.500000
vt 0.625000 -0.000000
vt 0.750000 -0.000000
vt 0.750000 1.000000
vt 0.625000 1.000000
vt 0.625000 0.500000
vt 0.750000 0.500000
vt 0.500000 0.000000
vt 0.500000 0.500000
vt 0.000000 0.500000
vt 0.000000 0.000000
vt 0.875000 0.000000
vt 0.875000 0.250000
vt 0.750000 0.250000
vt 0.125000 0.800000
vt 0.375000 0.800000
vt 0.500000 1.000000
vt 0.000000 1.000000
vt 0.375000 0.700000
vt 0.500000 0.500000
vt 0.125000 0.700000
vt 0.000000 0.500000
vt 0.850000 0.750000
vt 0.750000 0.750000
vt 0.850000 0.500000
vt 0.875000 0.250000
vt 0.875000 0.500000
vt 0.750000 0.500000
vt 0.750000 0.250000
vt 0.850000 0.875000
vt 0.750000 0.875000
vt 0.850000 1.000000
vt 0.750000 1.000000
s 0
f 1/1/1 9/2/1 10/3/1 3/4/1
f 3/5/2 10/6/2 11/7/2 7/8/2
f 7/9/3 11/8/3 12/10/3 5/11/3
f 5/12/4 12/13/4 9/14/4 1/15/4
f 3/16/5 7/17/5 5/18/5 1/19/5
f 6/20/3 8/21/3 15/22/3 16/11/3
f 2/23/6 4/24/6 10/25/6 9/26/6
f 4/24/6 8/27/6 11/28/6 10/25/6
f 8/27/6 6/29/6 12/30/6 11/28/6
f 6/29/6 2/23/6 9/26/6 12/30/6
f 15/31/6 14/32/6 13/15/6 16/33/6
f 4/34/1 2/35/1 13/36/1 14/37/1
f 2/38/4 6/39/4 16/32/4 13/31/4
f 8/40/2 4/41/2 14/39/2 15/38/2
g Hyperbola_XYZ_Function
v -0.444928 2.076595 1.000000
v -0.392475 1.691936 1.000000
v -0.287999 1.311992 1.000000
v -0.208052 1.143746 1.000000
v -0.091856 0.999340 1.000000
v 0.018237 0.923269 1.000000
v 0.148915 0.874636 1.000000
v 0.331539 0.860891 1.000000
v 0.515427 0.880131 1.000000
v 0.781439 0.950349 1.000000
v 1.212953 1.117742 1.000242
v -0.444928 2.076595 -1.000000
v -0.393419 1.692795 -1.000000
v -0.260261 1.239679 -1.000000
v -0.126734 1.033782 -1.000000
v -0.019278 0.944929 -1.000000
v 0.101648 0.887621 -1.000000
v 0.284806 0.859195 -1.000000
v 0.499118 0.878072 -1.000000
v 0.792439 0.952015 -1.000000
v 1.211114 1.120479 -1.000000
v -0.293277 2.093740 0.909194
v -0.331693 1.968219 0.900338
v -0.245220 1.498990 0.900544
v -0.143849 1.234526 0.901024
v -0.013780 1.064146 0.901487
v 0.128429 0.985843 0.901460
v 0.272444 0.962507 0.901154
v 0.433903 0.969102 0.900850
v 0.682193 1.025888 0.900561
v 1.060641 1.164355 0.900338
v 1.150137 1.260385 0.909194
v -0.293277 2.093740 -0.909194
v -0.331693 1.968219 -0.900338
v -0.262385 1.571240 -0.900561
v -0.187418 1.327821 -0.900842
v -0.112400 1.184697 -0.901154
v -0.020183 1.071644 -0.901462
v 0.072090 1.010184 -0.901523
v 0.159467 0.977892 -0.901398
v 0.320349 0.960618 -0.901052
v 0.597432 1.000526 -0.900394
v 1.060641 1.164355 -0.900338
v 1.150137 1.260385 -0.909194
vn 0.9725 0.2328 0.0011
vn 0.9628 0.2702 -0.0028
vn 0.9246 0.3810 0.0023
vn 0.0467 0.0188 0.9987
vn 0.0135 0.0132 0.9998
vn 0.0045 0.0151 0.9999
vn -0.6806 -0.7326 0.0022
vn -0.7463 -0.6656 -0.0030
vn -0.5368 -0.8437 -0.0019
vn -0.4623 -0.8867 0.0019
vn -0.2942 -0.9557 -0.0022
vn -0.2142 -0.9768 0.0022
vn -0.0321 -0.9995 -0.0012
vn -0.9376 -0.3477 0.0014
vn -0.9783 -0.2071 -0.0013
vn -0.9089 -0.4171 -0.0035
vn -0.2848 0.9586 -0.0014
vn -0.5532 0.8331 0.0010
vn -0.2397 0.9708 0.0031
vn 0.9562 -0.2927 -0.0000
vn 0.9980 -0.0631 -0.0009
vn 0.9978 -0.0670 -0.0000
vn 0.1795 -0.9838 -0.0005
vn 0.1662 -0.9861 -0.0003
vn 0.2286 0.9735 0.0017
vn 0.0602 0.9982 -0.0018
vn -0.0171 0.9999 0.0029
vn 0.6724 0.7402 0.0007
vn 0.6526 0.7577 -0.0030
vn 0.4537 0.8911 0.0015
vn 0.3255 0.9455 -0.0024
vn -0.8469 -0.5317 0.0026
vn 0.8340 0.5518 0.0011
vn -0.7316 0.6818 -0.0000
vn 0.8730 0.4878 -0.0033
vn 0.0102 0.0113 -0.9999
vn 0.0466 0.0187 -0.9987
vn 0.0048 0.0172 -0.9998
vn -0.1123 0.9937 -0.0000
vn 0.9166 0.3998 -0.0000
vn 0.9153 0.4027 -0.0003
vn 0.9153 0.4029 -0.0003
vn 0.3517 0.6091 0.7109
vn 0.3540 0.6122 0.7070
vn 0.3540 0.6123 0.7069
vn 0.3538 0.6128 -0.7066
vn -0.9909 -0.1349 0.0004
vn -0.9911 -0.1330 -0.0000
vn -0.9797 -0.2006 0.0004
vn 0.3633 -0.9317 0.0008
vn 0.3087 -0.9511 0.0009
vn 0.3094 -0.9509 -0.0010
vn 0.3733 -0.9277 -0.0016
vn -0.0483 0.1363 0.9895
vn -0.0075 0.0498 0.9987
vn 0.1463 0.0250 0.9889
vn -0.0014 -0.0019 1.0000
vn -0.0020 -0.0034 1.0000
vn -0.0031 -0.0053 1.0000
vn -0.0027 -0.0048 1.0000
vn -0.0040 -0.0071 1.0000
vn 0.0159 -0.9999 0.0005
vn -0.5569 0.8306 -0.0000
vn -0.0000 -0.0000 1.0000
vn -0.0003 -0.0004 1.0000
vn -0.0001 -0.0001 1.0000
vn -0.0002 -0.0000 1.0000
vn -0.1320 0.9912 -0.0023
vn -0.0065 0.0498 -0.9987
vn -0.0515 0.1392 -0.9889
vn -0.0010 -0.0019 -1.0000
vn -0.0019 -0.0034 -1.0000
vn -0.0016 -0.0027 -1.0000
vn -0.0029 -0.0050 -1.0000
vn -0.0029 -0.0049 -1.0000
vn 0.1432 0.0260 -0.9893
vn -0.0000 -0.0000 -1.0000
vn 0.9167 0.3995 -0.0000
vn 0.3515 0.6088 0.7113
vt 0.715977 0.002663
vt 0.702103 0.410102
vt 0.658711 0.002971
vt 0.812360 0.411241
vt 0.911219 0.476376
vt 0.925771 0.709318
vt 0.537219 0.452324
vt 0.527152 0.000002
vt 0.554513 0.000000
vt 0.273745 0.000246
vt 0.281068 0.452576
vt 0.256012 0.452553
vt 0.246211 0.000222
vt 0.216052 0.452522
vt 0.455423 0.452326
vt 0.366418 0.000002
vt 0.472939 0.000003
vt 0.694089 0.413989
vt 0.787503 0.820647
vt 0.676927 0.821425
vt 0.827245 0.000000
vt 0.807296 0.409377
vt 0.804628 0.002142
vt 0.164099 0.000161
vt 0.167498 0.452487
vt 0.579526 0.822330
vt 0.600680 0.414504
vt 0.613923 0.822011
vt 0.590535 0.003283
vt 0.591076 0.411047
vt 0.569510 0.003414
vt 0.562083 0.822481
vt 0.570314 0.414647
vt 0.497402 0.452326
vt 0.622270 0.003141
vt 0.809510 0.411241
vt 0.812360 0.822481
vt 0.638104 0.410628
vt 0.941009 0.300278
vt 0.829939 0.376946
vt 0.928800 0.065135
vt 0.544741 0.904650
vt 0.510510 0.472864
vt 0.544741 0.452326
vt 0.475295 0.452326
vt 0.510510 0.884056
vt 0.475295 0.904705
vt 0.302115 0.885469
vt 0.281068 0.480095
vt 0.301787 0.452326
vt 0.020755 0.885049
vt 0.000000 0.480344
vt 0.020755 0.452576
vt 0.281068 0.452323
vt 0.281068 -0.000000
vt 0.366675 0.452325
vt -0.000000 -0.000000
vt 0.102220 0.000120
vt 0.099387 0.452441
vt -0.000000 0.452378
vt 0.841308 0.781516
vt 0.812360 0.788187
vt 0.841308 0.417910
vt 0.950416 0.518585
vt 0.969964 0.549463
vt 0.964917 0.659561
vt 0.981677 0.580309
vt 0.979725 0.626097
vt 0.983280 0.605331
vt 0.205864 0.000191
vt 0.562083 0.452323
vt 0.784681 0.413413
vt 0.475295 0.673462
vt 0.470043 0.704556
vt 0.472845 0.643297
vt 0.452085 0.741879
vt 0.457702 0.604209
vt 0.427524 0.775720
vt 0.433791 0.569525
vt 0.383692 0.819882
vt 0.371192 0.506098
vt 0.829939 0.411241
vt 0.636494 0.414323
vt 0.562083 0.411241
vt 0.829939 -0.000000
vt 0.858890 0.006669
vt 0.967995 0.107344
vt 0.987542 0.138222
vt 0.981340 0.250518
vt 0.999255 0.169068
vt 1.000000 0.205776
vt 0.858890 0.370276
vt 0.194259 0.673712
vt 0.189008 0.704806
vt 0.191809 0.643546
vt 0.163782 0.754241
vt 0.176666 0.604458
vt 0.090097 0.831560
vt 0.101088 0.515529
vt 0.148737 0.564617
vt 0.510510 0.884113
vt 0.509844 0.472807
vt 0.281068 0.857041
vt -0.000000 0.857290
s 1
f 51/42/7 40/43/8 52/44/9
f 49/45/10 51/46/11 58/47/12
f 21/48/13 31/49/14 32/50/15
f 22/51/16 32/52/15 33/53/17
f 23/54/18 33/53/17 34/55/19
f 19/56/20 29/57/21 30/58/22
f 46/59/23 59/60/24 58/61/25
f 49/62/26 39/63/27 50/64/28
f 25/65/29 34/55/19 35/66/30
f 56/67/31 44/68/32 57/69/33
f 54/70/34 42/71/35 55/72/36
f 55/73/36 43/74/37 56/67/31
f 20/75/38 30/58/22 31/49/14
f 51/42/7 39/63/27 40/43/8
f 53/76/39 42/71/35 54/70/34
f 59/60/24 48/77/40 60/78/40
f 52/44/9 41/79/41 53/76/39
f 40/80/42 38/81/43 46/82/44
f 17/83/45 49/84/45 28/85/45
f 37/86/46 48/87/47 27/88/48
f 27/89/49 38/90/50 17/91/51
f 28/92/52 60/93/52 37/94/52
f 17/95/53 28/96/54 29/57/21
f 18/97/55 17/95/53 29/57/21
f 27/98/56 26/99/57 36/100/58
f 36/100/58 37/101/59 27/98/56
f 59/102/60 60/103/61 58/47/12
f 60/103/61 49/45/10 58/47/12
f 49/45/10 50/104/62 51/46/11
f 51/46/11 52/105/63 58/47/12
f 52/105/63 53/106/64 57/107/64
f 53/106/64 54/108/65 56/109/66
f 55/110/67 56/109/66 54/108/65
f 56/109/66 57/107/64 53/106/64
f 57/107/64 58/47/12 52/105/63
f 24/111/68 23/54/18 34/55/19
f 21/48/13 20/75/38 31/49/14
f 22/112/16 21/48/13 32/50/15
f 23/54/18 22/51/16 33/53/17
f 19/56/20 18/97/55 29/57/21
f 20/75/38 19/56/20 30/58/22
f 25/65/29 35/66/30 36/100/58
f 26/99/57 25/65/29 36/100/58
f 46/59/23 47/113/69 59/60/24
f 22/114/70 23/115/70 21/116/70
f 23/115/70 24/117/70 20/118/70
f 21/116/70 23/115/70 20/118/70
f 24/117/70 25/119/70 19/120/70
f 25/119/70 26/121/71 18/122/72
f 26/121/71 27/89/71 18/122/72
f 27/89/71 17/91/73 18/122/72
f 18/122/72 19/120/70 25/119/70
f 19/120/70 20/118/70 24/117/70
f 49/62/26 38/123/26 39/63/27
f 25/65/29 24/111/68 34/55/19
f 58/61/25 45/124/74 46/59/23
f 58/61/25 57/69/33 45/124/74
f 57/69/33 44/68/32 45/124/74
f 56/67/31 43/74/37 44/68/32
f 55/72/36 42/71/35 43/125/37
f 51/42/7 50/64/28 39/63/27
f 53/76/39 41/79/41 42/71/35
f 59/60/24 47/113/69 48/77/40
f 52/44/9 40/43/8 41/79/41
f 48/126/75 47/127/76 46/82/44
f 46/82/44 45/128/77 40/80/42
f 45/128/77 44/129/78 41/130/79
f 44/129/78 43/131/80 41/130/79
f 42/132/81 41/130/79 43/131/80
f 41/130/79 40/80/42 45/128/77
f 40/80/42 39/133/82 38/81/43
f 38/81/43 48/126/75 46/82/44
f 32/134/83 31/135/83 33/136/83
f 31/135/83 30/137/83 34/138/83
f 33/136/83 31/135/83 34/138/83
f 30/137/83 29/139/83 36/140/83
f 35/141/83 30/137/83 36/140/83
f 29/139/83 28/92/83 37/94/83
f 37/94/83 36/140/83 29/139/83
f 35/141/83 34/138/83 30/137/83
f 17/83/45 38/142/45 49/84/45
f 37/86/46 60/143/84 48/87/47
f 27/89/49 48/144/85 38/90/50
f 28/92/52 49/145/52 60/93/52
g Encloser_XYZ_Function.001
v -0.323534 2.034285 0.907058
v -0.203669 2.138168 0.907058
v -0.103957 2.169674 0.907058
v 0.057451 2.175526 0.907058
v 0.168953 2.161195 0.907058
v 0.406561 2.092402 0.907058
v 0.596883 2.000983 0.907058
v 0.759120 1.896495 0.907058
v 0.929458 1.749607 0.907058
v 1.045601 1.605017 0.907058
v 1.117073 1.473513 0.907058
v 1.143809 1.360202 0.907058
v 1.113776 1.204454 0.907058
v -0.323534 2.034285 -0.907058
v -0.203669 2.138168 -0.907058
v -0.092171 2.171669 -0.907058
v 0.115076 2.171345 -0.907058
v 0.407108 2.092741 -0.907058
v 0.608957 1.994079 -0.907058
v 0.748069 1.903919 -0.907058
v 0.879614 1.796838 -0.907058
v 1.027128 1.634117 -0.907058
v 1.121238 1.462308 -0.907058
v 1.143809 1.360202 -0.907058
v 1.113776 1.204454 -0.907058
vn -0.6549 0.7557 -0.0000
vn -0.4882 0.8727 -0.0000
vn -0.4823 0.8760 -0.0004
vn -0.1706 0.9853 0.0004
vn -0.1451 0.9894 -0.0015
vn 0.2039 0.9790 0.0009
vn 0.3517 0.9361 -0.0013
vn 0.1318 0.9913 -0.0022
vn 0.6875 0.7261 -0.0017
vn 0.7193 0.6947 0.0018
vn 0.8149 0.5795 -0.0018
vn 0.9340 0.3574 -0.0002
vn 0.9362 0.3514 -0.0005
vn 0.0455 0.9990 0.0012
vn 0.9998 0.0204 0.0004
vn 0.9999 0.0135 -0.0000
vn 0.9819 -0.1893 -0.0000
vn -0.0000 -0.0000 -1.0000
vn 0.3568 0.9342 0.0003
vn 0.5882 0.8087 -0.0003
vn 0.4926 0.8703 -0.0002
vn 0.5984 0.8012 0.0010
vn 0.4881 0.8728 0.0003
vn 0.8330 0.5532 0.0004
vn -0.0000 -0.0000 1.0000
vt 0.000087 0.697822
vt 0.053320 0.000010
vt 0.053407 0.697805
vt 0.093344 0.000004
vt 0.098026 0.697798
vt 0.195418 0.000000
vt 0.279764 0.697800
vt 0.176023 0.697794
vt 0.626083 0.000006
vt 0.607663 0.697798
vt 0.562533 0.000000
vt 0.500247 0.697794
vt 0.495839 0.000000
vt 0.154571 0.000000
vt 0.456493 0.697797
vt 0.456422 0.000002
vt 0.396791 0.697806
vt 0.396720 0.000011
vt 0.755459 0.591279
vt 0.725787 0.618435
vt 0.668129 0.638384
vt -0.000000 0.000028
vt 0.279445 0.000006
vt 0.393232 0.697822
vt 0.347972 0.697811
vt 0.396720 0.000029
vt 0.343884 0.000016
vt 0.551292 0.697795
vt 0.665273 0.697806
vt 0.668129 0.000012
vt 0.891734 0.618435
vt 0.834076 0.638384
vt 0.921406 0.591279
vt 0.834076 0.000000
vt 1.000000 0.325376
vt 0.891733 0.019950
vt 0.924337 0.050648
vt 0.954397 0.099748
vt 0.980225 0.166245
vt 0.996396 0.251237
vt 0.993850 0.406357
vt 0.971068 0.498738
vt 0.954397 0.538637
vt 0.668129 -0.000000
vt 0.834076 0.318359
vt 0.725787 0.019950
vt 0.758390 0.050648
vt 0.798140 0.119747
vt 0.828121 0.232145
vt 0.830796 0.382039
vt 0.820425 0.446452
vt 0.794591 0.526887
s 1
f 74/146/86 62/147/87 75/148/88
f 75/148/88 63/149/89 76/150/90
f 65/151/91 78/152/92 77/153/93
f 81/154/94 69/155/95 82/156/96
f 82/156/96 71/157/97 83/158/98
f 76/150/90 64/159/99 77/153/93
f 83/158/98 72/160/100 84/161/101
f 84/161/101 73/162/102 85/163/102
f 83/164/103 84/165/103 85/166/103
f 74/146/86 61/167/86 62/147/87
f 75/148/88 62/147/87 63/149/89
f 65/151/91 66/168/104 78/152/92
f 80/169/105 79/170/106 68/171/107
f 68/171/107 79/170/106 67/172/108
f 82/156/96 69/155/95 70/173/109
f 82/156/96 70/173/109 71/157/97
f 69/155/95 81/154/94 68/174/107
f 81/154/94 80/175/105 68/174/107
f 77/153/93 64/159/99 65/151/91
f 76/150/90 63/149/89 64/159/99
f 83/158/98 71/157/97 72/160/100
f 84/161/101 72/160/100 73/162/102
f 62/176/110 61/177/110 63/178/110
f 61/177/110 73/179/110 67/180/110
f 73/179/110 72/181/110 71/182/110
f 71/182/110 70/183/110 73/179/110
f 70/183/110 69/184/110 73/179/110
f 69/184/110 68/185/110 73/179/110
f 68/185/110 67/180/110 73/179/110
f 67/180/110 66/186/110 61/177/110
f 66/186/110 65/187/110 61/177/110
f 65/187/110 64/188/110 61/177/110
f 64/188/110 63/178/110 61/177/110
f 85/166/103 74/189/103 79/190/103
f 74/189/103 75/191/103 76/192/103
f 76/192/103 77/193/103 74/189/103
f 77/193/103 78/194/103 74/189/103
f 78/194/103 79/190/103 74/189/103
f 79/190/103 80/195/103 85/166/103
f 80/195/103 81/196/103 85/166/103
f 81/196/103 82/197/103 85/166/103
f 82/197/103 83/164/103 85/166/103
f 67/172/108 79/170/106 78/152/92
f 66/168/104 67/172/108 78/152/92
