# Blender 4.2.5 LTS
# www.blender.org
mtllib Workbench.mtl
g Cube.001_Cube.002
v -2.900000 5.000000 5.900000
v -2.900000 5.100000 6.000000
v -3.000000 5.100000 5.900000
v -2.900000 5.900000 6.000000
v -2.900000 6.000000 5.900000
v -3.000000 5.900000 5.900000
v -2.900000 5.000000 -5.900000
v -3.000000 5.100000 -5.900000
v -2.900000 5.100000 -6.000000
v -2.900000 6.000000 -5.900000
v -2.900000 5.900000 -6.000000
v -3.000000 5.900000 -5.900000
v 2.900000 5.000000 5.900000
v 3.000000 5.100000 5.900000
v 2.900000 5.100000 6.000000
v 2.900000 6.000000 5.900000
v 2.900000 5.900000 6.000000
v 3.000000 5.900000 5.900000
v 2.900000 5.000000 -5.900000
v 2.900000 5.100000 -6.000000
v 3.000000 5.100000 -5.900000
v 2.900000 6.000000 -5.900000
v 3.000000 5.900000 -5.900000
v 2.900000 5.900000 -6.000000
vn -0.0000 -0.0000 1.0000
vn 1.0000 -0.0000 -0.0000
vn -0.0000 1.0000 -0.0000
vn -1.0000 -0.0000 -0.0000
vn -0.0000 -0.0000 -1.0000
vn -0.5774 -0.5774 0.5774
vn -0.5774 0.5774 0.5774
vn -0.5774 -0.5774 -0.5774
vn -0.5774 0.5774 -0.5774
vn 0.5774 -0.5774 0.5774
vn 0.5774 0.5774 0.5774
vn 0.5774 -0.5774 -0.5774
vn 0.5774 0.5774 -0.5774
vn -0.7071 -0.7071 -0.0000
vn -0.7071 -0.0000 0.7071
vn -0.7071 0.7071 -0.0000
vn -0.7071 -0.0000 -0.7071
vn -0.0000 -0.7071 -0.7071
vn -0.0000 0.7071 -0.7071
vn 0.7071 -0.0000 -0.7071
vn 0.7071 -0.7071 -0.0000
vn 0.7071 0.7071 -0.0000
vn 0.7071 -0.0000 0.7071
vn -0.0000 -0.7071 0.7071
vn -0.0000 0.7071 0.7071
vn -0.0000 -1.0000 -0.0000
vt 0.864286 0.000000
vt 0.921429 -0.000000
vt 0.921429 0.292944
vt 0.864286 0.292944
vt 0.935714 0.303046
vt 0.992857 0.303046
vt 0.992857 0.899036
vt 0.935714 0.899036
vt 0.421429 0.850000
vt 0.007143 0.850000
vt 0.007143 0.007143
vt 0.421429 0.007143
vt 0.864286 0.303046
vt 0.921429 0.303046
vt 0.921429 0.899036
vt 0.864286 0.899036
vt 0.935714 -0.000000
vt 0.992857 -0.000000
vt 0.992857 0.292944
vt 0.935714 0.292944
vt 0.857143 0.297995
vt 0.928572 0.297995
vt 0.005051 0.928571
vt 0.000000 0.921429
vt 0.010102 0.921429
vt 0.005051 0.857143
vt 0.010102 0.864286
vt 0.000000 0.864286
vt 0.015152 0.928571
vt 0.020203 0.921429
vt 0.015152 0.857143
vt 0.020203 0.864286
vt 0.928571 0.297995
vt 1.000000 0.297995
vt 0.850000 0.850000
vt 0.850000 0.007143
vt 0.857143 0.007143
vt 0.857143 0.850000
vt 0.000000 0.850000
vt 0.000000 0.007143
vt 0.435714 0.850000
vt 0.850000 0.857143
vt 0.435714 0.857143
vt 0.421429 0.857143
vt 0.007143 0.857143
vt 0.435714 0.007143
vt 0.428571 0.850000
vt 0.428571 0.007143
vt 0.435714 0.000000
vt 0.850000 0.000000
vt 0.007143 0.000000
vt 0.421429 0.000000
s 0
f 15/1/1 17/2/1 4/3/1 2/4/1
f 21/5/2 23/6/2 18/7/2 14/8/2
f 22/9/3 10/10/3 5/11/3 16/12/3
f 3/13/4 6/14/4 12/15/4 8/16/4
f 9/17/5 11/18/5 24/19/5 20/20/5
f 1/21/6 2/4/6 3/13/6
f 4/3/7 5/22/7 6/14/7
f 7/23/8 8/24/8 9/25/8
f 10/26/9 11/27/9 12/28/9
f 13/29/10 14/25/10 15/30/10
f 16/31/11 17/32/11 18/27/11
f 19/33/12 20/20/12 21/5/12
f 22/34/13 23/6/13 24/19/13
f 7/35/14 1/36/14 3/37/14 8/38/14
f 2/4/15 4/3/15 6/14/15 3/13/15
f 5/11/16 10/10/16 12/39/16 6/40/16
f 11/27/17 9/25/17 8/24/17 12/28/17
f 19/41/18 7/35/18 9/42/18 20/43/18
f 10/10/19 22/9/19 24/44/19 11/45/19
f 23/6/20 21/5/20 20/20/20 24/19/20
f 13/46/21 19/41/21 21/47/21 14/48/21
f 22/9/22 16/12/22 18/48/22 23/47/22
f 17/32/23 15/30/23 14/25/23 18/27/23
f 1/36/24 13/46/24 15/49/24 2/50/24
f 16/12/25 5/11/25 4/51/25 17/52/25
f 7/35/26 19/41/26 13/46/26 1/36/26
g Cube.002_Cube.004
v -2.500000 0.000000 5.500000
v -2.500000 5.000000 5.500000
v -2.500000 0.000000 4.500000
v -2.500000 5.000000 4.500000
v -1.500000 0.000000 5.500000
v -1.500000 5.000000 5.500000
v -1.500000 0.000000 4.500000
v -1.500000 5.000000 4.500000
v 2.500000 0.000000 5.500000
v 2.500000 5.000000 5.500000
v 2.500000 0.000000 4.500000
v 2.500000 5.000000 4.500000
v 1.500000 0.000000 5.500000
v 1.500000 5.000000 5.500000
v 1.500000 0.000000 4.500000
v 1.500000 5.000000 4.500000
v -2.500000 0.000000 -5.500000
v -2.500000 5.000000 -5.500000
v -2.500000 0.000000 -4.500000
v -2.500000 5.000000 -4.500000
v -1.500000 0.000000 -5.500000
v -1.500000 5.000000 -5.500000
v -1.500000 0.000000 -4.500000
v -1.500000 5.000000 -4.500000
v 2.500000 0.000000 -5.500000
v 2.500000 5.000000 -5.500000
v 2.500000 0.000000 -4.500000
v 2.500000 5.000000 -4.500000
v 1.500000 0.000000 -5.500000
v 1.500000 5.000000 -5.500000
v 1.500000 0.000000 -4.500000
v 1.500000 5.000000 -4.500000
vn -1.0000 -0.0000 -0.0000
vn -0.0000 -0.0000 -1.0000
vn 1.0000 -0.0000 -0.0000
vn -0.0000 -0.0000 1.0000
vn -0.0000 -1.0000 -0.0000
vn -0.0000 1.0000 -0.0000
vt 0.000000 0.500000
vt 0.000000 0.000000
vt 0.100000 0.000000
vt 0.100000 0.500000
vt 0.200000 0.000000
vt 0.200000 0.500000
vt 0.300000 0.000000
vt 0.300000 0.500000
vt 0.400000 0.000000
vt 0.400000 0.500000
vt 0.900000 0.000000
vt 0.900000 0.100000
vt 0.800000 0.100000
vt 0.800000 0.000000
vt 0.900000 0.100000
vt 0.900000 0.200000
vt 0.800000 0.200000
vt 0.800000 0.100000
vt 0.500000 0.500000
vt 0.500000 0.000000
vt 0.100000 1.000000
vt 0.000000 1.000000
vt 0.200000 1.000000
vt 0.300000 1.000000
vt 0.900000 0.300000
vt 0.800000 0.300000
vt 0.900000 0.400000
vt 0.800000 0.400000
vt 0.800000 0.300000
vt 0.900000 0.300000
vt 0.400000 1.000000
vt 0.500000 1.000000
vt 0.600000 0.500000
vt 0.600000 0.000000
vt 0.600000 1.000000
vt 0.800000 0.400000
vt 0.900000 0.400000
vt 0.900000 0.500000
vt 0.800000 0.500000
vt 0.800000 0.500000
vt 0.900000 0.500000
vt 0.900000 0.600000
vt 0.800000 0.600000
vt 0.700000 0.000000
vt 0.700000 0.500000
vt 0.700000 1.000000
vt 0.800000 0.000000
vt 0.800000 1.000000
vt 0.800000 0.700000
vt 0.900000 0.700000
vt 0.800000 0.800000
vt 0.900000 0.700000
vt 0.900000 0.800000
s 0
f 25/53/27 26/54/27 28/55/27 27/56/27
f 27/56/28 28/55/28 32/57/28 31/58/28
f 31/58/29 32/57/29 30/59/29 29/60/29
f 29/60/30 30/59/30 26/61/30 25/62/30
f 27/63/31 31/64/31 29/65/31 25/66/31
f 32/67/32 28/68/32 26/69/32 30/70/32
f 33/71/29 35/62/29 36/61/29 34/72/29
f 35/73/28 39/74/28 40/53/28 36/56/28
f 39/75/27 37/73/27 38/56/27 40/58/27
f 37/76/30 33/75/30 34/58/30 38/60/30
f 35/77/31 33/78/31 37/69/31 39/68/31
f 40/79/32 38/80/32 34/81/32 36/82/32
f 41/83/27 43/76/27 44/60/27 42/62/27
f 43/84/30 47/83/30 48/62/30 44/71/30
f 47/85/29 45/71/29 46/72/29 48/86/29
f 45/87/28 41/84/28 42/71/28 46/85/28
f 43/88/31 41/89/31 45/90/31 47/91/31
f 48/92/32 46/93/32 42/94/32 44/95/32
f 49/85/29 50/86/29 52/96/29 51/97/29
f 51/87/30 52/85/30 56/97/30 55/98/30
f 55/97/27 56/96/27 54/99/27 53/91/27
f 53/98/28 54/97/28 50/91/28 49/100/28
f 51/101/31 55/95/31 53/94/31 49/102/31
f 56/103/32 52/101/32 50/104/32 54/105/32
g Cube.003_Cube.005
v -1.500000 3.600000 5.400000
v -1.500000 4.400000 5.400000
v -1.500000 3.600000 4.600000
v -1.500000 4.400000 4.600000
v 1.500000 3.600000 5.400000
v 1.500000 4.400000 5.400000
v 1.500000 3.600000 4.600000
v 1.500000 4.400000 4.600000
v -1.500000 3.600000 -5.400000
v -1.500000 4.400000 -5.400000
v -1.500000 3.600000 -4.600000
v -1.500000 4.400000 -4.600000
v 1.500000 3.600000 -5.400000
v 1.500000 4.400000 -5.400000
v 1.500000 3.600000 -4.600000
v 1.500000 4.400000 -4.600000
vn -1.0000 -0.0000 -0.0000
vn -0.0000 -0.0000 -1.0000
vn 1.0000 -0.0000 -0.0000
vn -0.0000 -0.0000 1.0000
vn -0.0000 -1.0000 -0.0000
vn -0.0000 1.0000 -0.0000
vt 0.666667 0.133333
vt 0.533334 0.133333
vt 0.533334 -0.000000
vt 0.666667 -0.000000
vt 0.133333 0.500000
vt 0.000000 0.500000
vt 0.000000 0.000000
vt 0.133333 0.000000
vt 0.666667 0.266667
vt 0.533333 0.266667
vt 0.533333 0.133333
vt 0.666667 0.133333
vt 0.266667 0.500000
vt 0.133333 0.500000
vt 0.133333 -0.000000
vt 0.266667 0.000000
vt 0.400000 0.000000
vt 0.400000 0.500000
vt 0.533333 0.000000
vt 0.533333 0.500000
vt 0.400000 -0.000000
vt 0.666667 0.400000
vt 0.533333 0.400000
vt 0.533333 0.266667
vt 0.666667 0.266667
vt 0.133333 1.000000
vt -0.000000 1.000000
vt 0.000000 0.500000
vt 0.666667 0.533333
vt 0.533333 0.533333
vt 0.533333 0.400000
vt 0.666667 0.400000
vt 0.266667 0.500000
vt 0.266667 1.000000
vt 0.133333 1.000000
vt 0.133333 0.500000
vt 0.266667 0.500000
vt 0.400000 0.500000
vt 0.400000 1.000000
vt 0.533333 0.500000
vt 0.533333 1.000000
s 0
f 57/106/33 58/107/33 60/108/33 59/109/33
f 59/110/34 60/111/34 64/112/34 63/113/34
f 63/114/35 64/115/35 62/116/35 61/117/35
f 61/118/36 62/119/36 58/120/36 57/121/36
f 59/122/37 63/123/37 61/118/37 57/121/37
f 64/124/38 60/125/38 58/123/38 62/126/38
f 65/127/33 67/128/33 68/129/33 66/130/33
f 67/119/36 71/131/36 72/132/36 68/133/36
f 71/134/35 69/135/35 70/136/35 72/137/35
f 69/138/34 65/139/34 66/140/34 70/141/34
f 67/142/37 65/143/37 69/144/37 71/139/37
f 72/143/38 70/145/38 66/146/38 68/144/38
g Cube.004_Cube.006
v -2.400000 3.600000 4.500000
v -2.400000 4.400000 4.500000
v -2.400000 3.600000 -4.500000
v -2.400000 4.400000 -4.500000
v -1.600000 3.600000 4.500000
v -1.600000 4.400000 4.500000
v -1.600000 3.600000 -4.500000
v -1.600000 4.400000 -4.500000
v 2.400000 3.600000 4.500000
v 2.400000 4.400000 4.500000
v 2.400000 3.600000 -4.500000
v 2.400000 4.400000 -4.500000
v 1.600000 3.600000 4.500000
v 1.600000 4.400000 4.500000
v 1.600000 3.600000 -4.500000
v 1.600000 4.400000 -4.500000
vn -1.0000 -0.0000 -0.0000
vn -0.0000 -0.0000 -1.0000
vn 1.0000 -0.0000 -0.0000
vn -0.0000 -0.0000 1.0000
vn -0.0000 -1.0000 -0.0000
vn -0.0000 1.0000 -0.0000
vt 0.088889 1.000000
vt -0.000000 1.000000
vt 0.000000 0.000000
vt 0.088889 0.000000
vt 0.800000 0.088889
vt 0.711111 0.088889
vt 0.711111 0.000000
vt 0.800000 0.000000
vt 0.177778 1.000000
vt 0.088889 1.000000
vt 0.088889 0.000000
vt 0.177778 0.000000
vt 0.800000 0.177778
vt 0.711111 0.177778
vt 0.711111 0.088889
vt 0.800000 0.088889
vt 0.444445 1.000000
vt 0.355556 1.000000
vt 0.355556 0.000000
vt 0.444445 0.000000
vt 0.533334 1.000000
vt 0.444445 1.000000
vt 0.444445 0.000000
vt 0.533334 0.000000
vt 0.266667 0.000000
vt 0.266667 1.000000
vt 0.177778 1.000000
vt 0.177778 0.000000
vt 0.800000 0.266667
vt 0.711111 0.266667
vt 0.711111 0.177778
vt 0.355556 0.000000
vt 0.355556 1.000000
vt 0.266667 1.000000
vt 0.266667 0.000000
vt 0.800000 0.266667
vt 0.800000 0.355556
vt 0.711111 0.355556
vt 0.711111 0.266667
vt 0.622223 0.000000
vt 0.622223 1.000000
vt 0.711111 0.000000
vt 0.711111 1.000000
s 0
f 73/147/39 74/148/39 76/149/39 75/150/39
f 75/151/40 76/152/40 80/153/40 79/154/40
f 79/155/41 80/156/41 78/157/41 77/158/41
f 77/159/42 78/160/42 74/161/42 73/162/42
f 75/163/43 79/164/43 77/165/43 73/166/43
f 80/167/44 76/168/44 74/169/44 78/170/44
f 81/171/41 83/172/41 84/173/41 82/174/41
f 83/159/40 87/175/40 88/176/40 84/177/40
f 87/178/39 85/179/39 86/180/39 88/181/39
f 85/182/42 81/183/42 82/184/42 86/185/42
f 83/167/43 81/170/43 85/186/43 87/187/43
f 88/187/44 86/186/44 82/188/44 84/189/44
